<svg xmlns="http://www.w3.org/2000/svg" width="332.713" height="99.212" viewBox="0 0 332.713 99.212">
  <g id="group_2" data-name="group 2" transform="translate(-251.724 -255.718)">
    <path id="path_40" data-name="path 40" d="M376.025,325.34H365.4V325l18.811-42.223-1.489-3.79v-.339l10.421-1.285,19.827,47.976H401.2l-5.277-13.263H378.867l-2.639,7.24Zm10.962-35.593-6.023,16.511h12.654Z" fill="#352d87"/>
    <path id="path_41" data-name="path 41" d="M423.391,325.34,410.6,291.912v-.338l11.03-1.083,9.338,28.014,6.834-21.653-.27-5.819h10.623v.338L434.015,325.34Z" fill="#352d87"/>
    <path id="path_42" data-name="path 42" d="M453.774,298.544l-1.759-5.346v-.338l11.841-2.436h.339V325.34H453.774Zm5.142-11.775c-3.653,0-5.819-2.3-5.819-5.277s2.166-5.211,5.819-5.211,5.752,2.233,5.752,5.211S462.57,286.769,458.916,286.769Z" fill="#352d87"/>
    <path id="path_43" data-name="path 43" d="M486.726,311.062l-2.909,2.842V325.34H473.4V280.409l-1.827-5.278v-.338l11.909-2.437h.339v36.608l8.932-12.789,1.218-5.142h13.06v.338L493.7,304.3,508.38,325v.339H496.674Z" fill="#352d87"/>
    <path id="path_44" data-name="path 44" d="M537.205,320.6c-3.856,3.248-8.525,5.752-13.6,5.752-3.112,0-5.886-.812-7.849-2.978-1.962-1.962-2.774-4.6-2.774-8.458v-16.51l-1.692-5.211v-.338l11.774-2.436h.338v23.615a6.026,6.026,0,0,0,1.421,4.466,5.713,5.713,0,0,0,4.128,1.354,19.256,19.256,0,0,0,7.646-1.9V291.98l10.083-1.556h.338v27.811l1.827,5.075v.338l-11.3,2.571h-.339Z" fill="#352d87"/>
    <path id="path_45" data-name="path 45" d="M582.271,299.762l-.474.338a27.133,27.133,0,0,0-14.751-4.2,25.817,25.817,0,0,0-4.533.474,7.116,7.116,0,0,0-.407,2.368c0,2.03,1.151,3.315,5.143,4.06l5.007.947c8.594,1.557,12.181,5.075,12.181,10.556a10.4,10.4,0,0,1-2.91,7.511c-2.978,2.91-7.85,4.534-14.075,4.534a46.285,46.285,0,0,1-11.435-1.489l-2.5-9.541.541-.271a27.423,27.423,0,0,0,16.511,5.414,18.264,18.264,0,0,0,5.346-.677,6.588,6.588,0,0,0,.4-2.233c0-2.03-1.082-3.248-5.616-4.2l-5.278-1.083c-7.308-1.421-11.435-4.872-11.435-10.691a10.04,10.04,0,0,1,2.977-7.376c2.436-2.436,6.7-4.2,12.992-4.2a38.337,38.337,0,0,1,9.609,1.285Z" fill="#352d87"/>
  </g>
  <g id="group_10" data-name="group 10" transform="translate(-251.724 -255.718)">
    <g id="group_3" data-name="group 3">
      <path id="path_46" data-name="path 46" d="M291.747,350.927a9.771,9.771,0,0,1-6.168-3.647,44.808,44.808,0,0,1-21.505-66.792,24.447,24.447,0,0,1-2.294-5.055,49.59,49.59,0,0,0,37.806,79.5C298.758,353.977,296.511,351.953,291.747,350.927Z" fill="#352d87"/>
      <path id="path_47" data-name="path 47" d="M350.969,305.34a49.36,49.36,0,0,0-10.055-29.908,24.432,24.432,0,0,1-2.294,5.056,44.807,44.807,0,0,1-21.543,66.806,9.785,9.785,0,0,1-6.159,3.633c-4.764,1.026-7.01,3.049-7.839,4A49.68,49.68,0,0,0,350.969,305.34Z" fill="#352d87"/>
      <path id="path_48" data-name="path 48" d="M271.189,272.217a44.788,44.788,0,0,1,60.316,0,12.962,12.962,0,0,0,3.726-3.1,49.53,49.53,0,0,0-67.768,0A12.962,12.962,0,0,0,271.189,272.217Z" fill="#352d87"/>
    </g>
    <g id="group_9" data-name="group 9">
      <path id="path_49" data-name="path 49" d="M323.609,275.594h0c-.424.029-1.669-.075-1.669-.075l-.011.008a23.9,23.9,0,0,1,2.962,11.56v2.019a21.961,21.961,0,0,0,10.835-7.161c3.533-4.423,5.274-10.348,5.171-17.612a.586.586,0,0,0-.607-.588.564.564,0,0,0-.546.388C337.838,269.36,333.726,275.573,323.609,275.594Z" fill="#352d87"/>
      <path id="path_50" data-name="path 50" d="M307.172,265.671V289.32h15.855v-2.764A21.777,21.777,0,0,0,307.172,265.671Z" fill="#352d87"/>
      <path id="path_51" data-name="path 51" d="M279.638,289.32h15.855V265.671a21.777,21.777,0,0,0-15.855,20.885Z" fill="#352d87"/>
      <path id="path_52" data-name="path 52" d="M301.628,305.475l-.06,0-.025,0a3.8,3.8,0,0,0-1.02.137,9.549,9.549,0,0,1-2.6,5.382v.016a3.6,3.6,0,0,0,3.588,3.588h.1a3.6,3.6,0,0,0,3.589-3.588v-.013a9.549,9.549,0,0,1-2.6-5.382A4.281,4.281,0,0,0,301.628,305.475Z" fill="#352d87"/>
      <g id="group_5" data-name="group 5">
        <g id="group_4" data-name="group 4">
          <path id="path_53" data-name="path 53" d="M301.611,262.094h-.1a3.6,3.6,0,0,0-3.588,3.588v32.039a9.571,9.571,0,0,1,2.119,3.388,8.389,8.389,0,0,1,1.527-.141c.04,0,.083,0,.128.007a8.711,8.711,0,0,1,1.377.131,9.552,9.552,0,0,1,2.121-3.428v-32A3.6,3.6,0,0,0,301.611,262.094Zm-.039,2.3a1.508,1.508,0,1,1-1.508,1.508A1.508,1.508,0,0,1,301.572,264.395Zm.976,7.911a.976.976,0,1,1-.976-.976A.976.976,0,0,1,302.548,272.306Zm-.976,4.553a1.85,1.85,0,1,1-1.849,1.849A1.849,1.849,0,0,1,301.572,276.859Zm.976,8.252a.978.978,0,0,1-.355.753.976.976,0,0,1-1.577-.557.973.973,0,0,1-.02-.2h0c0-.034,0-.067.005-.1a.983.983,0,0,1,.039-.19.976.976,0,0,1,1.864,0,.983.983,0,0,1,.039.19c0,.033.005.066.005.1Zm-.976,8.689a2.287,2.287,0,1,1,2.287-2.287A2.287,2.287,0,0,1,301.572,293.8Z" fill="#352d87"/>
          <path id="path_54" data-name="path 54" d="M300.6,285.111h0c0-.034,0-.067.005-.1C300.6,285.044,300.6,285.077,300.6,285.111Z" fill="#352d87"/>
          <path id="path_55" data-name="path 55" d="M300.6,285.011a.983.983,0,0,1,.039-.19A.983.983,0,0,0,300.6,285.011Z" fill="#352d87"/>
          <path id="path_56" data-name="path 56" d="M302.543,285.011c0,.033.005.066.005.1h0C302.548,285.077,302.546,285.044,302.543,285.011Z" fill="#352d87"/>
          <path id="path_57" data-name="path 57" d="M302.5,284.821a.983.983,0,0,1,.039.19A.983.983,0,0,0,302.5,284.821Z" fill="#352d87"/>
          <path id="path_58" data-name="path 58" d="M302.548,285.111h0a.975.975,0,0,1-.02.2A.975.975,0,0,0,302.548,285.111Z" fill="#352d87"/>
          <path id="path_59" data-name="path 59" d="M301.572,284.135a.974.974,0,0,1,.753.355.976.976,0,0,0-1.506,0A.974.974,0,0,1,301.572,284.135Z" fill="#352d87"/>
          <path id="path_60" data-name="path 60" d="M302.193,285.864a.993.993,0,0,1-.331.179A.993.993,0,0,0,302.193,285.864Z" fill="#352d87"/>
          <path id="path_61" data-name="path 61" d="M301.282,286.043a1,1,0,0,0,.58,0,1,1,0,0,1-.58,0Z" fill="#352d87"/>
          <path id="path_62" data-name="path 62" d="M302.43,284.646a.968.968,0,0,1,.074.175A.968.968,0,0,0,302.43,284.646Z" fill="#352d87"/>
          <path id="path_63" data-name="path 63" d="M300.64,284.821a.966.966,0,0,1,.074-.175A.966.966,0,0,0,300.64,284.821Z" fill="#352d87"/>
          <path id="path_64" data-name="path 64" d="M301.282,286.043a.994.994,0,0,1-.331-.179A.994.994,0,0,0,301.282,286.043Z" fill="#352d87"/>
          <path id="path_65" data-name="path 65" d="M300.6,285.111a.973.973,0,0,0,.02.2.973.973,0,0,1-.02-.2Z" fill="#352d87"/>
        </g>
      </g>
      <path id="path_66" data-name="path 66" d="M312.093,312.8a8.453,8.453,0,1,0-8.233-10.338,7.552,7.552,0,0,0-2.21-.355c-.025,0-.052-.006-.076-.006a7.212,7.212,0,0,0-2.3.378,8.468,8.468,0,1,0,.192,2.325,4.824,4.824,0,0,1,2.078-.459c.034,0,.072,0,.107.005a5.6,5.6,0,0,1,2.012.426A8.456,8.456,0,0,0,312.093,312.8Zm-21.058-2.24a6.212,6.212,0,1,1,6.212-6.213A6.219,6.219,0,0,1,291.035,310.556Zm21.058-12.425a6.212,6.212,0,1,1-6.212,6.212A6.219,6.219,0,0,1,312.093,298.131Z" fill="#352d87"/>
      <path id="path_67" data-name="path 67" d="M277.8,289.106v-2.019a23.885,23.885,0,0,1,2.962-11.56l-.011-.008s-1.246.1-1.669.075h0c-10.117-.021-14.229-6.234-16.135-11.461a.563.563,0,0,0-.545-.388.586.586,0,0,0-.607.588c-.1,7.264,1.637,13.189,5.171,17.612A21.957,21.957,0,0,0,277.8,289.106Z" fill="#352d87"/>
      <path id="path_68" data-name="path 68" d="M283.056,309.639q.131.2.27.386C283.191,309.827,283.1,309.693,283.056,309.639Z" fill="#352d87"/>
      <g id="group_6" data-name="group 6">
        <path id="path_69" data-name="path 69" d="M273.361,311.944c0-.033,0-.065,0-.1C273.357,311.879,273.358,311.911,273.361,311.944Z" fill="#352d87"/>
        <path id="path_70" data-name="path 70" d="M273.357,311.847h0Z" fill="#352d87"/>
      </g>
      <path id="path_71" data-name="path 71" d="M275.844,329.836c-.107-.08-.21-.163-.308-.249C275.634,329.674,275.737,329.757,275.844,329.836Z" fill="#352d87"/>
      <g id="group_7" data-name="group 7">
        <path id="path_72" data-name="path 72" d="M273.21,324.756s-3.362-.431-4.343-2.734c0,0-.05,4.578,2.515,7.191C271.382,329.213,271.2,325.515,273.21,324.756Z" fill="#352d87"/>
        <path id="path_73" data-name="path 73" d="M329.455,324.756c2.012.759,1.828,4.457,1.828,4.457,2.565-2.613,2.515-7.191,2.515-7.191C332.817,324.325,329.455,324.756,329.455,324.756Z" fill="#352d87"/>
      </g>
      <g id="group_8" data-name="group 8">
        <path id="path_74" data-name="path 74" d="M322.691,325.26a5.971,5.971,0,0,1,.559-.364,5.411,5.411,0,0,1,.6-.294l.132-.054c.049-.019.1-.036.145-.053l.052-.019c.323-.114.659-.214,1.005-.3a27.84,27.84,0,0,1,3.122-.511c6.566-1.027,6.064-8.362,6.064-8.362a5.329,5.329,0,0,1-4.561,2.6c-3.2,0-5.071-2.188-5.071-4.566,0-2.439,1.189-3.618,2.548-3.618a2.18,2.18,0,0,1,2.025,2.125h0c0,.032,0,.064,0,.1a1.816,1.816,0,0,1-.726,1.4,1.463,1.463,0,0,1-.477.226,1.415,1.415,0,0,1-.346.047l-.047,0a1.551,1.551,0,0,1-1.339-.945c.005.05.011.1.019.15a3.53,3.53,0,0,0,1.06,1.9,3.6,3.6,0,0,0,2.575,1.108,3.958,3.958,0,0,0,3.775-4.12,4.317,4.317,0,0,0-.946-2.726h0a6.849,6.849,0,0,0-1.795-1.506l-.06-.036-.034-.02h0c-2.292-1.328-5.622-1.282-5.622-5.825a2.244,2.244,0,0,1,.227-1.031A1.857,1.857,0,0,1,327.3,299.5a1.67,1.67,0,1,1,0,3.321,2.016,2.016,0,0,1-.483-.059c.054,1.587,1.912,1.98,2.827,1.587,1.009-.434,1.72-1.128,1.72-2.971s-1.213-3.36-3.2-4.607-5.129-3.516-5.129-5.419H307.172v4.535a9.481,9.481,0,0,1,4.458-1.122,9.573,9.573,0,0,1,8,14.847s-2.98,3.889-2.98,6.355c0,4.742,2.982,6.691-1.039,12.733,0,0-.193.285-.364.171-.059-.041-.047-.08.052-.373a8.513,8.513,0,0,0-1.252-6.992,12.222,12.222,0,0,0-2.756-2.917l-.042-.032a9.841,9.841,0,0,0-4.465-2.04c-7.089-1.215-5.8,5.277-3.035,5.794v0a11.05,11.05,0,0,0,3.526-.288,4.141,4.141,0,0,1,3.6,1.6c.023.029.48.586.3.879s-.686.3-1.393.241h0a5.611,5.611,0,0,0-3.61.706,4.689,4.689,0,0,1-4.815-.444h-.037a4.689,4.689,0,0,1-4.815.444,5.612,5.612,0,0,0-3.61-.706h0c-.707.058-1.208.058-1.393-.241s.278-.85.3-.879a4.141,4.141,0,0,1,3.6-1.6,11.05,11.05,0,0,0,3.526.288v0c2.762-.517,4.055-7.009-3.034-5.794a9.841,9.841,0,0,0-4.465,2.04l-.042.032a12.222,12.222,0,0,0-2.756,2.917,8.518,8.518,0,0,0-1.252,6.992c.1.293.111.332.052.373-.171.114-.365-.171-.365-.171-4.02-6.042-1.038-7.991-1.038-12.733,0-2.466-2.98-6.355-2.98-6.355a9.559,9.559,0,0,1,12.456-13.725v-4.535H279.638c0,1.9-3.14,4.173-5.129,5.419s-3.2,2.764-3.2,4.607.711,2.537,1.72,2.971c.915.393,2.773,0,2.827-1.587a2.016,2.016,0,0,1-.483.059,1.67,1.67,0,1,1,0-3.321,1.857,1.857,0,0,1,1.726,1.064,2.244,2.244,0,0,1,.227,1.031c0,4.543-3.33,4.5-5.622,5.825h0l-.034.02-.06.036a6.849,6.849,0,0,0-1.795,1.506h0a4.317,4.317,0,0,0-.946,2.726,3.958,3.958,0,0,0,3.775,4.12,3.6,3.6,0,0,0,2.575-1.108,3.53,3.53,0,0,0,1.06-1.9q.012-.075.018-.15a1.549,1.549,0,0,1-1.338.945l-.047,0a1.415,1.415,0,0,1-.346-.047,1.463,1.463,0,0,1-.477-.226,1.816,1.816,0,0,1-.726-1.4c0-.033,0-.065,0-.1h0a2.18,2.18,0,0,1,2.025-2.125c1.359,0,2.548,1.179,2.548,3.618,0,2.378-1.874,4.566-5.071,4.566a5.327,5.327,0,0,1-4.561-2.6s-.5,7.335,6.064,8.362a27.842,27.842,0,0,1,3.122.511c.346.085.682.185,1.005.3l.052.019c.048.017.1.034.145.053s.088.036.132.054a5.409,5.409,0,0,1,.6.294,5.971,5.971,0,0,1,.559.364,5.089,5.089,0,0,1,.888.84,3.108,3.108,0,0,1,.6,3.5c-.842,1.46-3.111,1.727-5.067.6a5.389,5.389,0,0,1-.547-.361c-.107-.079-.21-.162-.308-.249a3.83,3.83,0,0,1-.442-.46,1.88,1.88,0,0,0,2.233-.677,2.029,2.029,0,0,0-1.028-2.642,2.529,2.529,0,0,0-1.486-.345,2.589,2.589,0,0,0-.437.045,2.545,2.545,0,0,0-.634.207,2.429,2.429,0,0,0-1.136,1.134c-2.55,5.252,7.394,13.727,8.706,14.813a7.007,7.007,0,0,1,13.648-2.11,3.3,3.3,0,0,1,.189,1.067,3.139,3.139,0,0,1-3.073,3.271,2.987,2.987,0,0,1-1.688-.538c-.076-.051.163-.008.163-.008a2.286,2.286,0,0,0,1.171-4.373,4.078,4.078,0,0,0-5.91,3.683c0,1.943.474,5.512,6.261,6.759,7.048,1.518,9.209,5.19,9.24,5.243h.039c.031-.053,2.192-3.725,9.24-5.243,5.787-1.247,6.261-4.816,6.261-6.759a4.078,4.078,0,0,0-5.91-3.683,2.286,2.286,0,0,0,1.171,4.373s.239-.043.163.008a2.987,2.987,0,0,1-1.688.538,3.139,3.139,0,0,1-3.073-3.271,3.306,3.306,0,0,1,.189-1.067,7.007,7.007,0,0,1,13.648,2.11c1.312-1.086,11.256-9.561,8.706-14.813a2.429,2.429,0,0,0-1.136-1.134,2.545,2.545,0,0,0-.634-.207,2.589,2.589,0,0,0-.437-.045,2.529,2.529,0,0,0-1.486.345,2.03,2.03,0,0,0-1.029,2.642,1.882,1.882,0,0,0,2.234.677,3.832,3.832,0,0,1-.442.46c-.1.087-.2.17-.308.249a5.389,5.389,0,0,1-.547.361c-1.956,1.129-4.225.862-5.067-.6a3.108,3.108,0,0,1,.6-3.5A5.054,5.054,0,0,1,322.691,325.26Z" fill="#352d87"/>
      </g>
    </g>
  </g>
  <g id="group_11" data-name="group 11" transform="translate(-251.724 -255.718)">
    <path id="path_75" data-name="path 75" d="M373.566,333.544h2.153l2.413,7.189h.026l2.349-7.189h2.128v9.183H381.18v-7.086h-.026l-2.424,7.086h-1.259l-2.424-7.086h-.023v7.086h-1.458Z" fill="#352d87"/>
    <path id="path_76" data-name="path 76" d="M386.674,333.544H388.3l3.367,9.183h-1.64l-.821-2.43H385.72l-.82,2.43h-1.578Zm-.538,5.532H388.8l-1.311-3.951h-.037Z" fill="#352d87"/>
    <path id="path_77" data-name="path 77" d="M392.362,333.544h4.176c1.908,0,2.888.926,2.888,2.481a2.22,2.22,0,0,1-1.444,2.316v.025c.524.077,1.3.49,1.3,1.943a4.352,4.352,0,0,0,.478,2.418h-1.64a2.66,2.66,0,0,1-.234-1.35c0-1.686-.33-2.432-1.737-2.432h-2.253v3.782h-1.53Zm1.53,4.179H396.4a1.323,1.323,0,0,0,1.493-1.464c0-1.171-.721-1.4-1.516-1.4h-2.486Z" fill="#352d87"/>
    <path id="path_78" data-name="path 78" d="M400.844,333.544h1.53v9.183h-1.53Z" fill="#352d87"/>
    <path id="path_79" data-name="path 79" d="M403.28,333.544h7.075v1.39h-2.78v7.793h-1.529v-7.793H403.28Z" fill="#352d87"/>
    <path id="path_80" data-name="path 80" d="M411.235,333.544h1.53v9.183h-1.53Z" fill="#352d87"/>
    <path id="path_81" data-name="path 81" d="M414.476,333.544h2.154l2.412,7.189h.026l2.35-7.189h2.128v9.183H422.09v-7.086h-.026l-2.424,7.086h-1.258l-2.424-7.086h-.023v7.086h-1.459Z" fill="#352d87"/>
    <path id="path_82" data-name="path 82" d="M425.246,333.544h6.289v1.39h-4.76v2.4h4.407v1.313h-4.407v2.686h4.845v1.39h-6.374Z" fill="#352d87"/>
    <path id="path_83" data-name="path 83" d="M438.428,333.544h1.626l3.367,9.183H441.78l-.82-2.43h-3.489l-.82,2.43h-1.578Zm-.541,5.532h2.669l-1.311-3.951h-.034Z" fill="#352d87"/>
    <path id="path_84" data-name="path 84" d="M444.019,333.544h1.53v5.349c0,1.236.074,2.664,2.056,2.664s2.057-1.428,2.057-2.664v-5.349h1.529v5.876a3.586,3.586,0,0,1-7.172,0Z" fill="#352d87"/>
    <path id="path_85" data-name="path 85" d="M451.986,333.544h7.072v1.39h-2.777v7.793h-1.529v-7.793h-2.766Z" fill="#352d87"/>
    <path id="path_86" data-name="path 86" d="M467.845,338.136c0,2.623-1.566,4.811-4.184,4.811s-4.187-2.188-4.187-4.811,1.567-4.811,4.187-4.811S467.845,335.512,467.845,338.136Zm-6.841,0c0,1.763.783,3.5,2.657,3.5s2.655-1.735,2.655-3.5-.784-3.5-2.655-3.5S461,336.372,461,338.136Z" fill="#352d87"/>
    <path id="path_87" data-name="path 87" d="M469.044,333.544h1.615l3.991,6.765h.023v-6.765h1.458v9.183h-1.615l-3.979-6.753H470.5v6.753h-1.456Z" fill="#352d87"/>
    <path id="path_88" data-name="path 88" d="M485.713,338.136c0,2.623-1.567,4.811-4.184,4.811s-4.188-2.188-4.188-4.811,1.567-4.811,4.188-4.811S485.713,335.512,485.713,338.136Zm-6.842,0c0,1.763.783,3.5,2.658,3.5s2.654-1.735,2.654-3.5-.783-3.5-2.654-3.5S478.871,336.372,478.871,338.136Z" fill="#352d87"/>
    <path id="path_89" data-name="path 89" d="M486.949,333.544H489.1l2.41,7.189h.025l2.35-7.189h2.131v9.183h-1.459v-7.086h-.022l-2.424,7.086h-1.262l-2.421-7.086H488.4v7.086h-1.455Z" fill="#352d87"/>
    <path id="path_90" data-name="path 90" d="M505.622,338.136c0,2.623-1.566,4.811-4.184,4.811s-4.187-2.188-4.187-4.811,1.567-4.811,4.187-4.811S505.622,335.512,505.622,338.136Zm-6.841,0c0,1.763.783,3.5,2.657,3.5s2.655-1.735,2.655-3.5-.784-3.5-2.655-3.5S498.781,336.372,498.781,338.136Z" fill="#352d87"/>
    <path id="path_91" data-name="path 91" d="M506.784,333.544h1.53v5.349c0,1.236.074,2.664,2.056,2.664s2.057-1.428,2.057-2.664v-5.349h1.529v5.876a3.586,3.586,0,0,1-7.172,0Z" fill="#352d87"/>
    <path id="path_92" data-name="path 92" d="M516.588,339.665c0,1.416.992,1.969,2.214,1.969,1.347,0,1.848-.7,1.848-1.391a1.088,1.088,0,0,0-.72-1.13c-.613-.245-1.407-.41-2.609-.758a2.3,2.3,0,0,1-1.932-2.33c0-1.837,1.615-2.7,3.193-2.7,1.823,0,3.353,1.017,3.353,2.934h-1.53c-.074-1.185-.832-1.621-1.882-1.621-.713,0-1.6.271-1.6,1.2a1.212,1.212,0,0,0,1.039,1.182c.134.04,2.068.567,2.521.707a2.42,2.42,0,0,1,1.7,2.341c0,2.059-1.738,2.883-3.475,2.883-1.994,0-3.612-1-3.646-3.282Z" fill="#352d87"/>
    <path id="path_93" data-name="path 93" d="M526.646,333.544H530.5a2.833,2.833,0,1,1,0,5.66h-2.327v3.523h-1.529Zm1.529,4.347h2.242a1.422,1.422,0,0,0,1.53-1.519,1.331,1.331,0,0,0-1.507-1.518h-2.265Z" fill="#352d87"/>
    <path id="path_94" data-name="path 94" d="M534.675,333.544h1.53v9.183h-1.53Z" fill="#352d87"/>
    <path id="path_95" data-name="path 95" d="M545.849,338.136c0,2.623-1.566,4.811-4.187,4.811s-4.184-2.188-4.184-4.811,1.567-4.811,4.184-4.811S545.849,335.512,545.849,338.136Zm-6.842,0c0,1.763.784,3.5,2.655,3.5s2.655-1.735,2.655-3.5-.783-3.5-2.655-3.5S539.007,336.372,539.007,338.136Z" fill="#352d87"/>
    <path id="path_96" data-name="path 96" d="M547.046,333.544h1.617l3.988,6.765h.025v-6.765h1.456v9.183h-1.615l-3.976-6.753H548.5v6.753h-1.458Z" fill="#352d87"/>
    <path id="path_97" data-name="path 97" d="M555.807,333.544H562.1v1.39h-4.763v2.4h4.407v1.313h-4.407v2.686h4.848v1.39h-6.377Z" fill="#352d87"/>
    <path id="path_98" data-name="path 98" d="M563.383,333.544h6.289v1.39h-4.759v2.4h4.406v1.313h-4.406v2.686h4.845v1.39h-6.375Z" fill="#352d87"/>
    <path id="path_99" data-name="path 99" d="M570.957,333.544h4.175c1.909,0,2.889.926,2.889,2.481a2.22,2.22,0,0,1-1.444,2.316v.025c.524.077,1.3.49,1.3,1.943a4.352,4.352,0,0,0,.478,2.418h-1.64a2.66,2.66,0,0,1-.234-1.35c0-1.686-.33-2.432-1.737-2.432h-2.254v3.782h-1.529Zm1.529,4.179H575a1.323,1.323,0,0,0,1.492-1.464c0-1.171-.72-1.4-1.515-1.4h-2.487Z" fill="#352d87"/>
  </g>
</svg>

